<svg width="14" height="14" viewBox="0 0 14 14" fill="none" xmlns="http://www.w3.org/2000/svg">
<g clip-path="url(#clip0_50_2093)">
<path d="M11.1999 6.62213C10.8642 6.62213 10.5842 6.90213 10.5842 7.23791V12.4322H1.56787V3.41591H6.76215C7.09793 3.41591 7.37793 3.13591 7.37793 2.80013C7.37793 2.46436 7.09793 2.18436 6.76215 2.18436H0.965874C0.630098 2.18436 0.350098 2.46436 0.350098 2.80013V13.0344C0.350098 13.3702 0.630098 13.6502 0.965874 13.6502H11.2002C11.5359 13.6502 11.8159 13.3702 11.8159 13.0344V7.22441C11.8159 6.88809 11.5359 6.6223 11.2002 6.6223L11.1999 6.62213Z" fill="#006AC3"/>
<path d="M13.0341 0.350006H9.35197C9.01619 0.350006 8.73619 0.630006 8.73619 0.965782C8.73619 1.30156 9.01619 1.58156 9.35197 1.58156H11.5641L5.26411 7.88156C5.02622 8.11945 5.02622 8.51156 5.26411 8.74945C5.38989 8.87523 5.54411 8.93156 5.69833 8.93156C5.85256 8.93156 6.00622 8.87578 6.13256 8.74945L12.4326 2.44945V4.66159C12.4326 4.99736 12.7126 5.27736 13.0483 5.27736C13.3841 5.27736 13.6641 4.99736 13.6641 4.66159V0.965866C13.6499 0.63009 13.3699 0.350006 13.0341 0.350006Z" fill="#006AC3"/>
</g>
<defs>
<clipPath id="clip0_50_2093">
<rect width="14" height="14" fill="white"/>
</clipPath>
</defs>
</svg>
