<svg width="24" height="24" viewBox="0 0 24 24" fill="none" xmlns="http://www.w3.org/2000/svg">
<path d="M22.9033 21.357L15.8778 14.3302C16.9584 12.9114 17.5664 11.0872 17.5664 9.12753C17.5664 4.2631 13.6483 0.344971 8.78386 0.344971C3.91943 0.344971 0 4.2644 0 9.12882C0 13.9932 3.91813 17.9114 8.78256 17.9114C10.7423 17.9114 12.498 17.3033 13.9852 16.2228L21.0121 23.2496C21.2819 23.5194 21.6201 23.655 21.9583 23.655C22.2966 23.655 22.6335 23.5194 22.9046 23.2496C23.4443 22.7087 23.4443 21.8979 22.9033 21.357ZM8.78386 15.2094C5.40535 15.2094 2.70332 12.5073 2.70332 9.12882C2.70332 5.75032 5.40535 3.04829 8.78386 3.04829C12.1624 3.04829 14.8644 5.75032 14.8644 9.12882C14.8644 12.506 12.1611 15.2094 8.78386 15.2094Z" fill="#006AC3"/>
</svg>
